<?xml version="1.0" standalone="no"?><!DOCTYPE svg PUBLIC "-//W3C//DTD SVG 1.1//EN" "http://www.w3.org/Graphics/SVG/1.1/DTD/svg11.dtd"><svg t="1603807547264" class="icon" viewBox="0 0 1024 1024" version="1.1" xmlns="http://www.w3.org/2000/svg" p-id="1774" xmlns:xlink="http://www.w3.org/1999/xlink" width="200" height="200"><defs><style type="text/css"></style></defs><path d="M128 789.333333V213.333333a128 128 0 0 1 128-128h597.333333a42.666667 42.666667 0 0 1 42.666667 42.666667v768a42.666667 42.666667 0 0 1-42.666667 42.666667H277.333333A149.333333 149.333333 0 0 1 128 789.333333zM810.666667 853.333333v-128H277.333333a64 64 0 0 0 0 128H810.666667zM426.666667 170.666667H256a42.666667 42.666667 0 0 0-42.666667 42.666666v441.045334A148.736 148.736 0 0 1 277.333333 640H810.666667V170.666667h-85.333334v341.333333l-149.333333-85.333333-149.333333 85.333333V170.666667z" p-id="1775" fill="#004198"></path></svg>