<?xml version="1.0" encoding="UTF-8" standalone="no"?>
<svg
   xmlns:dc="http://purl.org/dc/elements/1.1/"
   xmlns:cc="http://creativecommons.org/ns#"
   xmlns:rdf="http://www.w3.org/1999/02/22-rdf-syntax-ns#"
   xmlns:svg="http://www.w3.org/2000/svg"
   xmlns="http://www.w3.org/2000/svg"
   xmlns:sodipodi="http://sodipodi.sourceforge.net/DTD/sodipodi-0.dtd"
   xmlns:inkscape="http://www.inkscape.org/namespaces/inkscape"
   t="1603893591599"
   class="icon"
   viewBox="0 0 1024 1024"
   version="1.1"
   p-id="4290"
   data-spm-anchor-id="a313x.7781069.0.i3"
   width="200"
   height="200"
   id="svg70"
   sodipodi:docname="close.svg"
   inkscape:version="1.0.1 (1.0.1+r73)">
  <metadata
     id="metadata74">
    <rdf:RDF>
      <cc:Work
         rdf:about="">
        <dc:format>image/svg+xml</dc:format>
        <dc:type
           rdf:resource="http://purl.org/dc/dcmitype/StillImage" />
      </cc:Work>
    </rdf:RDF>
  </metadata>
  <sodipodi:namedview
     pagecolor="#ffffff"
     bordercolor="#666666"
     borderopacity="1"
     objecttolerance="10"
     gridtolerance="10"
     guidetolerance="10"
     inkscape:pageopacity="0"
     inkscape:pageshadow="2"
     inkscape:window-width="1920"
     inkscape:window-height="1043"
     id="namedview72"
     showgrid="false"
     inkscape:zoom="2.115"
     inkscape:cx="9.4515118"
     inkscape:cy="48.035717"
     inkscape:window-x="0"
     inkscape:window-y="0"
     inkscape:window-maximized="1"
     inkscape:current-layer="svg70" />
  <defs
     id="defs66">
    <style
       type="text/css"
       id="style64" />
  </defs>
  <path
     d="M 128,182.60834 C 128,152.43798 152.68572,128 182.61028,128 H 841.41715 C 871.56114,128 896,152.68483 896,182.60834 V 841.39166 C 896,871.56202 871.31429,896 841.38972,896 H 182.58285 C 152.43886,895.97257 128,871.28774 128,841.36424 V 182.58091 Z m 69.73595,41.69596 0.0442,570.71589 c 0.16409,10.31347 14.57395,31.22978 23.94667,31.23619 l 585.64646,0.39996 c 11.92376,0.10917 18.9896,-3.90272 19.00498,-17.03638 l 0.69027,-589.2627 c 0.0113,-9.68987 -12.68413,-22.24769 -22.86728,-22.51237 l -584.01613,-0.75933 c -13.79452,0.61646 -22.70698,16.05201 -22.44921,27.21874 z m 67.4069,287.68199 c 0,-15.14003 12.20571,-27.4276 27.23657,-27.4276 h 439.24116 c 15.03086,0 27.23657,12.17786 27.23657,27.4276 0,15.14003 -12.20571,27.42759 -27.23657,27.42759 H 292.37942 c -15.11127,-0.0149 -27.32779,-12.31713 -27.23657,-27.42759 z"
     fill="#2c2c2c"
     p-id="4291"
     id="path68"
     style="stroke-width:0.857127"
     sodipodi:nodetypes="cssssscsccccscssccccssssccs" />
</svg>
