<?xml version="1.0" standalone="no"?><!DOCTYPE svg PUBLIC "-//W3C//DTD SVG 1.1//EN" "http://www.w3.org/Graphics/SVG/1.1/DTD/svg11.dtd"><svg t="1603905057048" class="icon" viewBox="0 0 1024 1024" version="1.1" xmlns="http://www.w3.org/2000/svg" p-id="1804" xmlns:xlink="http://www.w3.org/1999/xlink" width="200" height="200"><defs><style type="text/css"></style></defs><path d="M426.666667 725.333333h170.666666v170.666667h-170.666666z" p-id="1805" fill="#2c2c2c"></path><path d="M858.453333 371.626667l-206.08-206.08A128 128 0 0 0 561.92 128H426.666667v256h213.333333a42.666667 42.666667 0 0 1 0 85.333333H384a42.666667 42.666667 0 0 1-42.666667-42.666666V128H256a128 128 0 0 0-128 128v512a128 128 0 0 0 128 128h85.333333v-170.666667a85.333333 85.333333 0 0 1 85.333334-85.333333h170.666666a85.333333 85.333333 0 0 1 85.333334 85.333333v170.666667h85.333333a128 128 0 0 0 128-128v-305.92a128 128 0 0 0-37.546667-90.453333z" p-id="1806" fill="#2c2c2c"></path></svg>